<svg width="32px" height="26px" viewBox="0 0 32 26" version="1.1" xmlns="http://www.w3.org/2000/svg" xmlns:xlink="http://www.w3.org/1999/xlink">   
    <g id="glasses" fill="currentColor" transform="translate(0.000000, -3.000000)">
        <path d="M31.5274955,19.5176206 L27.2897173,5.70486489 C26.6927547,3.69120621 24.6066658,2.5530513 22.6452173,3.16590394 C22.1794553,3.31406612 21.9104942,3.81916445 22.0548148,4.29732421 C22.1991354,4.77548396 22.6911375,5.05160438 23.1568995,4.90344221 C24.1868239,4.58017927 25.2757886,5.17956263 25.59067,6.2369018 L25.59067,6.24363645 L28.621403,16.1368291 C27.6570789,15.5778536 26.5484341,15.2613253 25.367629,15.2613253 C21.9695344,15.2613253 19.1618424,17.901306 18.7813607,21.2820975 L13.2053368,21.2820975 C12.7723749,17.9551831 9.99092294,15.3825489 6.6321885,15.3825489 C5.4448234,15.3825489 4.32961861,15.7058119 3.36529446,16.2647874 L6.43538766,6.24363645 L6.43538766,6.2369018 C6.75026901,5.17956263 7.83923369,4.58017927 8.86915812,4.90344221 C9.33492012,5.05160438 9.83348226,4.77548396 9.97124285,4.29732421 C10.1155635,3.81916445 9.84660232,3.30733147 9.38084032,3.16590394 C7.41939189,2.5530513 5.33986295,3.69120621 4.73634036,5.70486489 L0.511682199,19.5310899 C0.498562143,19.5714978 0.492002114,19.605171 0.485442086,19.6455789 C0.177120761,20.4335323 0,21.2955668 0,22.1912745 C0,25.9424714 2.9782528,29 6.6321885,29 C9.99092294,29 12.7723749,26.4273658 13.2053368,23.1004515 L18.8141609,23.1004515 C19.2996029,26.366754 22.0548148,28.8787764 25.367629,28.8787764 C29.0215647,28.8787764 31.9998175,25.8212478 31.9998175,22.0700509 C32.0063776,21.1676085 31.8358168,20.305574 31.5274955,19.5176206 Z M6.63874853,27.181646 C3.955697,27.181646 1.77776764,24.945744 1.77776764,22.1912745 C1.77776764,19.4368049 3.955697,17.2009029 6.63874853,17.2009029 C9.32180006,17.2009029 11.4997294,19.4368049 11.4997294,22.1912745 C11.4997294,24.945744 9.31524003,27.181646 6.63874853,27.181646 Z M25.3741891,27.0604224 C22.6911375,27.0604224 20.5132082,24.8245204 20.5132082,22.0700509 C20.5132082,19.3155813 22.6976975,17.0796793 25.3741891,17.0796793 C28.0506806,17.0796793 30.2351699,19.3155813 30.2351699,22.0700509 C30.2351699,24.8245204 28.0572406,27.0604224 25.3741891,27.0604224 Z"></path>
    </g>        
</svg>
