<svg width="30px" height="30px" viewBox="0 0 30 30" version="1.1" xmlns="http://www.w3.org/2000/svg" xmlns:xlink="http://www.w3.org/1999/xlink">   
    <g id="profile" fill="currentColor" transform="translate(-1.000000, -1.000000)">
        <path d="M16,1 C7.72897582,1 1,7.72897582 1,16 C1,24.2710242 7.72897582,31 16,31 C24.2710242,31 31,24.2710242 31,16 C31,7.72897582 24.2710242,1 16,1 Z M16,29.0520245 C12.1404915,29.0520245 8.6673985,27.3676125 6.27581437,24.6959469 C7.063821,22.9381336 8.30761819,21.4323214 9.90221409,20.3178799 C11.6949214,19.0649979 13.8036367,18.4026305 16,18.4026305 C18.1963633,18.4026305 20.3049753,19.0649979 22.0978892,20.3179832 C23.6923818,21.4322181 24.9360758,22.9382369 25.7240824,24.6960502 C23.3324983,27.3676125 19.8595085,29.0520245 16,29.0520245 Z M11.5087855,11.9633372 C11.5087855,9.48678913 13.5235552,7.47212262 16,7.47212262 C18.4764448,7.47212262 20.4912145,9.48678913 20.4912145,11.9633372 C20.4912145,14.4398852 18.4763416,16.4545517 16,16.4545517 C13.5236584,16.4545517 11.5087855,14.4398852 11.5087855,11.9633372 Z M23.2137759,18.7212193 C22.1897699,18.0054784 21.0783223,17.4545035 19.9110236,17.0740759 C21.4465681,15.8961438 22.4391901,14.043972 22.4391901,11.9635436 C22.4391901,8.41291974 19.5506239,5.52435357 16,5.52435357 C12.4493761,5.52435357 9.56080993,8.41291974 9.56080993,11.9635436 C9.56080993,14.0440752 10.5534319,15.8961438 12.0889764,17.0740759 C10.9215744,17.4546068 9.81012684,18.0056849 8.78612084,18.7213225 C7.19049258,19.8363834 5.89208311,21.2839701 4.96522296,22.9630137 C3.68849322,20.9464889 2.94807876,18.5582084 2.94807876,16 C2.94807876,8.80305168 8.80315492,2.94797553 16.0001032,2.94797553 C23.1970516,2.94797553 29.0520245,8.80305168 29.0520245,16 C29.0520245,18.5582084 28.31161,20.9464889 27.034777,22.9630137 C26.1078137,21.2838668 24.8094042,19.8362802 23.2137759,18.7212193 Z"></path>
    </g>        
</svg>
