<svg width="24px" height="24px" viewBox="0 0 24 24" version="1.1" xmlns="http://www.w3.org/2000/svg" xmlns:xlink="http://www.w3.org/1999/xlink">   
    <g id="search" fill="currentColor" transform="translate(-1.000000, -1.000000)">
        <path d="M24.7061224,23.2955102 L18.9363265,17.5257143 C20.3665306,15.7820408 21.2285714,13.5485714 21.2285714,11.1142857 C21.2285714,5.53061224 16.6979592,1 11.1142857,1 C5.52571429,1 1,5.53061224 1,11.1142857 C1,16.6979592 5.52571429,21.2285714 11.1142857,21.2285714 C13.5485714,21.2285714 15.7771429,20.3714286 17.5208163,18.9412245 L23.2906122,24.7061224 C23.682449,25.0979592 24.3142857,25.0979592 24.7061224,24.7061224 C25.0979592,24.3191837 25.0979592,23.682449 24.7061224,23.2955102 Z M11.1142857,19.2155102 C6.64244898,19.2155102 3.00816327,15.5812245 3.00816327,11.1142857 C3.00816327,6.64734694 6.64244898,3.00816327 11.1142857,3.00816327 C15.5812245,3.00816327 19.2204082,6.64734694 19.2204082,11.1142857 C19.2204082,15.5812245 15.5812245,19.2155102 11.1142857,19.2155102 Z"></path>
    </g>        
</svg>
