<?xml version="1.0" encoding="utf-8"?><svg xmlns="http://www.w3.org/2000/svg" xmlns:xlink="http://www.w3.org/1999/xlink"><symbol viewBox="0 0 14 14" id="breadcrumbs--breadcrumbs_arrow" xmlns="http://www.w3.org/2000/svg"><path d="M5 3.7l.7-.7 4 4-4 4-.7-.7L8.245 7z" fill="#B2C0CD"/></symbol><symbol viewBox="0 0 14 14" id="breadcrumbs--breadcrumbs_home" xmlns="http://www.w3.org/2000/svg"><path d="M4.88 12.52V8.076H9.12v4.442h2.12V6.53L7 2.089 2.762 6.53v5.99H4.88zM7 0l7 7.337h-1.35V14H7.707V9.558H6.294V14H1.349V7.337H0L7 0z" fill="#B2C0CD"/></symbol><symbol viewBox="0 0 12 7" id="header--arrow_down" xmlns="http://www.w3.org/2000/svg"><path d="M11 0l1 1-6 6-6-6 1-1 5 5z" fill="#FFF"/></symbol><symbol viewBox="0 0 30 30" id="header--close" xmlns="http://www.w3.org/2000/svg"><path d="M15 13L2 0 0 2l13 13L0 28l2 2 13-13 13 13 2-2-13-13L30 2l-2-2-13 13z" fill="#B2C0CD"/></symbol><symbol viewBox="0 0 36 46" id="header--color_ribbon_black" xmlns="http://www.w3.org/2000/svg"><title>Rectangle 3</title><path fill="#000" d="M0 0h36v36L18 46 0 36z" fill-rule="evenodd"/></symbol><symbol viewBox="0 0 36 46" id="header--color_ribbon_blue" xmlns="http://www.w3.org/2000/svg"><title>Rectangle 3</title><path fill="#A2D0FF" d="M0 0h36v36L18 46 0 36z" fill-rule="evenodd"/></symbol><symbol viewBox="0 0 36 46" id="header--color_ribbon_white" xmlns="http://www.w3.org/2000/svg"><title>Rectangle 3</title><defs><path id="ga" d="M0 0h36v36L18 46 0 36z"/></defs><g fill="#fff" fill-rule="evenodd"><use fill="#FFF" xlink:href="#ga"/><path stroke="#000" stroke-width="2" d="M1 1v34.412l17 9.444 17-9.444V1H1z"/></g></symbol><symbol viewBox="0 0 36 46" id="header--font-size_ribbon" xmlns="http://www.w3.org/2000/svg"><title>Rectangle 3</title><defs><path id="ha" d="M0 0h36v36L18 46 0 36z"/></defs><g fill="none" fill-rule="evenodd"><use fill="#FFF" xlink:href="#ha"/><path stroke="#000" stroke-width="2" d="M1 1v34.412l17 9.444 17-9.444V1H1z"/></g></symbol><symbol viewBox="0 0 32 26" id="header--glasses" xmlns="http://www.w3.org/2000/svg"><path d="M31.527 16.518L27.29 2.705C26.693.69 24.607-.447 22.645.165a.913.913 0 0 0-.59 1.132c.144.478.636.755 1.102.606 1.03-.323 2.119.277 2.434 1.334v.007l3.03 9.893a6.46 6.46 0 0 0-3.253-.876c-3.398 0-6.206 2.64-6.587 6.021h-5.576c-.433-3.327-3.214-5.9-6.573-5.9a6.496 6.496 0 0 0-3.267.883l3.07-10.021v-.007C6.75 2.18 7.84 1.58 8.87 1.903a.879.879 0 0 0 1.102-.606.91.91 0 0 0-.59-1.131C7.419-.447 5.34.69 4.736 2.705L.512 16.53a.72.72 0 0 0-.027.115A6.99 6.99 0 0 0 0 19.19C0 22.942 2.978 26 6.632 26c3.359 0 6.14-2.573 6.573-5.9h5.61c.485 3.267 3.24 5.779 6.553 5.779 3.654 0 6.632-3.058 6.632-6.809a6.857 6.857 0 0 0-.473-2.552zM6.64 24.182c-2.683 0-4.861-2.236-4.861-4.99 0-2.755 2.178-4.991 4.86-4.991 2.684 0 4.862 2.236 4.862 4.99 0 2.755-2.185 4.99-4.861 4.99zm18.735-.122c-2.683 0-4.86-2.235-4.86-4.99 0-2.754 2.184-4.99 4.86-4.99 2.677 0 4.861 2.236 4.861 4.99 0 2.755-2.178 4.99-4.86 4.99z" fill="currentColor"/></symbol><symbol viewBox="0 0 12 7" id="header--ln_arrow_down" xmlns="http://www.w3.org/2000/svg"><path d="M11 0l1 1-6 6-6-6 1-1 5 5z" fill="#2C3756" fill-opacity=".6"/></symbol><symbol viewBox="0 0 30 30" id="header--profile" xmlns="http://www.w3.org/2000/svg"><path d="M15 0C6.729 0 0 6.729 0 15s6.729 15 15 15 15-6.729 15-15S23.271 0 15 0zm0 28.052c-3.86 0-7.333-1.684-9.724-4.356a10.636 10.636 0 0 1 3.626-4.378A10.592 10.592 0 0 1 15 17.403c2.196 0 4.305.662 6.098 1.915a10.635 10.635 0 0 1 3.626 4.378A13.022 13.022 0 0 1 15 28.052zm-4.491-17.089A4.496 4.496 0 0 1 15 6.473a4.496 4.496 0 0 1 4.491 4.49A4.496 4.496 0 0 1 15 15.455a4.496 4.496 0 0 1-4.491-4.492zm11.705 6.758a12.541 12.541 0 0 0-3.303-1.647 6.431 6.431 0 0 0 2.528-5.11c0-3.551-2.888-6.44-6.439-6.44a6.446 6.446 0 0 0-6.44 6.44c0 2.08.993 3.932 2.529 5.11-1.167.38-2.279.932-3.303 1.647a12.589 12.589 0 0 0-3.82 4.242A12.976 12.976 0 0 1 1.947 15C1.948 7.803 7.803 1.948 15 1.948c7.197 0 13.052 5.855 13.052 13.052 0 2.558-.74 4.946-2.017 6.963a12.59 12.59 0 0 0-3.821-4.242z" fill="currentColor"/></symbol><symbol viewBox="0 0 24 24" id="header--search" xmlns="http://www.w3.org/2000/svg"><path d="M23.706 22.296l-5.77-5.77a10.079 10.079 0 0 0 2.293-6.412C20.229 4.531 15.698 0 10.114 0 4.526 0 0 4.53 0 10.114 0 15.698 4.526 20.23 10.114 20.23a10.06 10.06 0 0 0 6.407-2.288l5.77 5.765a1 1 0 0 0 1.415-1.41zm-13.592-4.08c-4.472 0-8.106-3.635-8.106-8.102 0-4.467 3.634-8.106 8.106-8.106 4.467 0 8.106 3.64 8.106 8.106 0 4.467-3.639 8.102-8.106 8.102z" fill="currentColor"/></symbol><symbol viewBox="0 0 12 7" id="sideNav--arrow_down" xmlns="http://www.w3.org/2000/svg"><path d="M11 0l1 1-6 6-6-6 1-1 5 5z" fill="currentColor"/></symbol><symbol viewBox="0 0 26 26" id="sideNav--move_down" xmlns="http://www.w3.org/2000/svg"><path d="M22.173 15.892l-8.383 8.285a1.11 1.11 0 0 1-.79.323c-.301 0-.584-.116-.793-.326l-8.38-8.282a1.083 1.083 0 0 1 0-1.552 1.128 1.128 0 0 1 1.586 0l6.467 6.397V2.602c0-.61.498-1.102 1.12-1.102.62 0 1.12.496 1.12 1.102v18.135l.852-.843 5.614-5.554c.215-.212.497-.326.794-.326.297 0 .578.114.793.326.436.431.436 1.12 0 1.552z" fill="#2AAC4A"/></symbol><symbol viewBox="0 0 26 26" id="sideNav--move_up" xmlns="http://www.w3.org/2000/svg"><path d="M22.173 10.108L13.79 1.823A1.11 1.11 0 0 0 13 1.5c-.301 0-.584.116-.793.326l-8.38 8.282a1.083 1.083 0 0 0 0 1.552c.44.434 1.147.434 1.586 0l6.467-6.397v18.135c0 .61.498 1.102 1.12 1.102.62 0 1.12-.496 1.12-1.102V5.263l.852.843 5.614 5.554c.215.212.497.326.794.326.297 0 .578-.114.793-.326a1.083 1.083 0 0 0 0-1.552z" fill="#2AAC4A"/></symbol><symbol viewBox="0 0 26 26" id="sideNav--settings" xmlns="http://www.w3.org/2000/svg"><path d="M10.263 0c-.357 0-.641.316-.684.599L9.301 3.09c-.238.091-.469.183-.695.288L6.65 1.817a.71.71 0 0 0-.909.043l-3.87 3.87a.709.709 0 0 0-.054.92l1.561 1.956c-.105.225-.198.459-.288.695l-2.48.278a.71.71 0 0 0-.61.684v5.473c.003.332.28.638.609.674l2.48.278c.091.239.182.479.289.706L1.817 19.35a.709.709 0 0 0 .054.91l3.87 3.869c.235.235.648.26.909.054l1.967-1.571c.223.104.45.198.684.289l.278 2.49a.71.71 0 0 0 .684.609h5.473a.708.708 0 0 0 .685-.609l.278-2.49c.234-.091.461-.186.684-.289l1.967 1.571a.709.709 0 0 0 .91-.054l3.869-3.869a.71.71 0 0 0 .054-.91l-1.562-1.955c.107-.228.197-.467.289-.706l2.48-.278a.708.708 0 0 0 .609-.674v-5.473a.71.71 0 0 0-.609-.684l-2.48-.278c-.09-.236-.184-.471-.289-.695l1.562-1.956a.708.708 0 0 0-.054-.919L20.26 1.86a.71.71 0 0 0-.91-.043l-1.955 1.561a11.266 11.266 0 0 0-.695-.289L16.422.598A.712.712 0 0 0 15.736 0h-5.473zm.62 1.369h4.234l.256 2.266a.703.703 0 0 0 .471.567c.459.148.907.353 1.348.577a.697.697 0 0 0 .736-.075l1.808-1.433 2.993 2.993-1.433 1.807a.7.7 0 0 0-.075.737c.225.44.418.877.566 1.336a.7.7 0 0 0 .578.47l2.266.257v4.245l-2.266.256a.702.702 0 0 0-.578.471 9.082 9.082 0 0 1-.566 1.336.7.7 0 0 0 .075.748l1.433 1.797-3.004 3.004-1.797-1.433a.699.699 0 0 0-.736-.075c-.44.225-.889.418-1.348.566a.706.706 0 0 0-.471.567l-.256 2.276h-4.234l-.257-2.276a.701.701 0 0 0-.47-.567 9.205 9.205 0 0 1-1.347-.566.7.7 0 0 0-.737.075l-1.796 1.433-3.004-3.004 1.433-1.797a.7.7 0 0 0 .075-.748 8.931 8.931 0 0 1-.566-1.336.704.704 0 0 0-.578-.471l-2.266-.256v-4.245l2.266-.257a.7.7 0 0 0 .578-.47c.148-.459.342-.896.566-1.336a.699.699 0 0 0-.075-.737L3.271 6.265l2.993-2.993 1.807 1.433a.7.7 0 0 0 .737.075 9.16 9.16 0 0 1 1.347-.577.7.7 0 0 0 .47-.567l.258-2.267zM13 6.842A6.168 6.168 0 0 0 6.842 13c0 3.393 2.765 6.158 6.158 6.158s6.158-2.766 6.158-6.158A6.168 6.168 0 0 0 13 6.842zm0 1.368c2.653 0 4.789 2.136 4.789 4.79S15.653 17.789 13 17.789 8.21 15.653 8.21 13 10.347 8.21 13 8.21z" fill="currentColor"/></symbol></svg>