<svg width="26px" height="26px" viewBox="0 0 26 26" version="1.1" xmlns="http://www.w3.org/2000/svg" xmlns:xlink="http://www.w3.org/1999/xlink">   
    <g id="move_down" fill="#2AAC4A">
        <path d="M22.1727952,15.8917385 L13.7903319,24.1770568 C13.5840769,24.384263 13.3012491,24.5 13,24.5 C12.6987509,24.5 12.4159231,24.384263 12.2067886,24.1741875 L3.82720484,15.8917385 C3.39093172,15.4605226 3.39093172,14.7713142 3.82720484,14.3400983 C4.26671631,13.9056815 4.9741162,13.9056815 5.41347085,14.3399432 L11.8795837,20.7367429 L11.8795837,2.60163265 C11.8795837,1.9925578 12.3779182,1.5 13,1.5 C13.620139,1.5 14.1204163,1.99552358 14.1204163,2.60163265 L14.1204163,20.7367429 L14.9720594,19.8942289 L20.5863723,14.3400983 C20.8013716,14.1275912 21.082584,14.0142857 21.3795837,14.0142857 C21.6765835,14.0142857 21.9577959,14.1275912 22.1727952,14.3400983 C22.6090683,14.7713142 22.6090683,15.4605226 22.1727952,15.8917385 Z"></path>
    </g>        
</svg>
