<svg width="26px" height="26px" viewBox="0 0 26 26" version="1.1" xmlns="http://www.w3.org/2000/svg" xmlns:xlink="http://www.w3.org/1999/xlink">   
    <g id="move_up" fill="#2AAC4A">
        <path d="M22.1727952,10.1082615 L13.7903319,1.8229432 C13.5840769,1.61573698 13.3012491,1.5 13,1.5 C12.6987509,1.5 12.4159231,1.61573698 12.2067886,1.82581254 L3.82720484,10.1082615 C3.39093172,10.5394774 3.39093172,11.2286858 3.82720484,11.6599017 C4.26671631,12.0943185 4.9741162,12.0943185 5.41347085,11.6600568 L11.8795837,5.26325712 L11.8795837,23.3983673 C11.8795837,24.0074422 12.3779182,24.5 13,24.5 C13.620139,24.5 14.1204163,24.0044764 14.1204163,23.3983673 L14.1204163,5.26325712 L14.9720594,6.1057711 L20.5863723,11.6599017 C20.8013716,11.8724088 21.082584,11.9857143 21.3795837,11.9857143 C21.6765835,11.9857143 21.9577959,11.8724088 22.1727952,11.6599017 C22.6090683,11.2286858 22.6090683,10.5394774 22.1727952,10.1082615 Z"></path>
    </g>        
</svg>
