<svg width="26px" height="26px" viewBox="0 0 26 26" version="1.1" xmlns="http://www.w3.org/2000/svg" xmlns:xlink="http://www.w3.org/1999/xlink">
    <g id="settings" fill="currentColor">
        <path d="M10.263,0C9.906,0,9.622,0.316,9.579,0.599L9.301,3.09C9.063,3.181,8.832,3.273,8.606,3.378
			L6.65,1.817C6.392,1.609,5.978,1.628,5.741,1.86l-3.87,3.87C1.63,5.966,1.605,6.388,1.817,6.65l1.561,1.956
			C3.273,8.831,3.18,9.065,3.09,9.301l-2.48,0.278C0.277,9.616-0.002,9.929,0,10.263v5.473c0.003,0.332,0.28,0.638,0.609,0.674
			l2.48,0.278c0.091,0.239,0.182,0.479,0.289,0.706L1.817,19.35c-0.206,0.262-0.182,0.675,0.054,0.91l3.87,3.869
			c0.235,0.235,0.648,0.26,0.909,0.054l1.967-1.571c0.223,0.104,0.45,0.198,0.684,0.289l0.278,2.49
			c0.037,0.332,0.35,0.611,0.684,0.609h5.473c0.335,0.004,0.648-0.277,0.685-0.609l0.278-2.49c0.234-0.091,0.461-0.186,0.684-0.289
			l1.967,1.571c0.262,0.206,0.675,0.182,0.91-0.054l3.869-3.869c0.235-0.235,0.26-0.648,0.054-0.91l-1.562-1.955
			c0.107-0.228,0.197-0.467,0.289-0.706l2.48-0.278c0.329-0.036,0.605-0.342,0.609-0.674v-5.473
			c0.002-0.334-0.277-0.647-0.609-0.684l-2.48-0.278c-0.09-0.236-0.184-0.471-0.289-0.695l1.562-1.956
			c0.212-0.262,0.187-0.684-0.054-0.919L20.26,1.86c-0.238-0.232-0.651-0.251-0.91-0.043l-1.955,1.561
			c-0.227-0.105-0.458-0.198-0.695-0.289l-0.278-2.491C16.379,0.27,16.068-0.002,15.736,0H10.263z M10.883,1.369h4.234l0.256,2.266
			c0.033,0.257,0.224,0.488,0.471,0.567c0.459,0.148,0.907,0.353,1.348,0.577c0.232,0.119,0.533,0.088,0.736-0.075l1.808-1.433
			l2.993,2.993l-1.433,1.807c-0.163,0.204-0.193,0.505-0.075,0.737c0.225,0.44,0.418,0.877,0.566,1.336
			c0.081,0.25,0.316,0.442,0.578,0.47l2.266,0.257v4.245l-2.266,0.256c-0.262,0.029-0.497,0.221-0.578,0.471
			c-0.148,0.459-0.342,0.896-0.566,1.336c-0.123,0.236-0.092,0.543,0.075,0.748l1.433,1.797l-3.004,3.004l-1.797-1.433
			c-0.203-0.163-0.504-0.193-0.736-0.075c-0.44,0.225-0.889,0.418-1.348,0.566c-0.247,0.08-0.438,0.311-0.471,0.567l-0.256,2.276
			h-4.234l-0.257-2.276c-0.032-0.257-0.223-0.487-0.47-0.567c-0.459-0.148-0.907-0.342-1.347-0.566
			c-0.232-0.118-0.533-0.088-0.737,0.075l-1.796,1.433l-3.004-3.004l1.433-1.797c0.167-0.205,0.198-0.512,0.075-0.748
			c-0.225-0.439-0.418-0.877-0.566-1.336c-0.081-0.25-0.316-0.441-0.578-0.471l-2.266-0.256v-4.245l2.266-0.257
			c0.261-0.028,0.497-0.22,0.578-0.47c0.148-0.459,0.342-0.896,0.566-1.336c0.119-0.232,0.088-0.533-0.075-0.737L3.271,6.265
			l2.993-2.993l1.807,1.433c0.204,0.163,0.505,0.193,0.737,0.075c0.44-0.225,0.888-0.429,1.347-0.577
			c0.247-0.079,0.438-0.31,0.47-0.567L10.883,1.369L10.883,1.369z M13,6.842c-3.393,0-6.158,2.765-6.158,6.158
			c0,3.393,2.765,6.158,6.158,6.158s6.158-2.766,6.158-6.158C19.158,9.607,16.393,6.842,13,6.842z M13,8.21
			c2.653,0,4.789,2.136,4.789,4.79S15.653,17.789,13,17.789S8.21,15.653,8.21,13S10.347,8.21,13,8.21z"/>
    </g>
</svg>
